<?xml version="1.0" standalone="no"?>
<!DOCTYPE svg PUBLIC "-//W3C//DTD SVG 20010904//EN"
 "http://www.w3.org/TR/2001/REC-SVG-20010904/DTD/svg10.dtd">
<svg version="1.0" xmlns="http://www.w3.org/2000/svg"
 width="256.000000pt" height="256.000000pt" viewBox="0 0 256.000000 256.000000"
 preserveAspectRatio="xMidYMid meet">
<metadata>
Created by potrace 1.16, written by Peter Selinger 2001-2019
</metadata>
<g transform="translate(0.000000,256.000000) scale(0.100000,-0.100000)"
fill="#000000" stroke="none">
<path d="M1297 2515 l27 -48 -25 7 c-102 29 -207 41 -329 37 l-55 -2 30 -22
c16 -12 41 -32 54 -43 l25 -22 -59 1 c-84 0 -214 -13 -220 -23 -3 -4 20 -27
50 -50 30 -23 55 -45 55 -49 0 -4 -22 -15 -49 -24 -78 -29 -194 -102 -217
-139 -27 -40 -59 -133 -85 -247 -12 -47 -29 -96 -39 -109 -36 -45 -60 -129
-60 -208 0 -71 -1 -74 -19 -64 -11 5 -40 10 -65 10 -137 0 -168 -195 -60 -389
l24 -44 -22 -24 c-22 -23 -22 -25 -5 -38 17 -12 15 -17 -22 -75 -42 -65 -81
-157 -81 -190 0 -22 4 -24 29 -11 15 9 17 3 18 -57 1 -114 48 -225 131 -312
l53 -55 -5 49 -6 48 113 -110 c109 -108 183 -172 197 -172 4 0 5 25 2 55 -2
30 -2 55 1 55 2 0 33 -27 68 -61 65 -62 169 -141 202 -152 16 -6 18 -3 12 23
-4 17 -5 30 -2 30 2 0 44 -20 93 -45 101 -52 128 -57 115 -22 -9 23 -9 23 76
25 46 0 99 4 116 7 26 6 30 5 20 -6 -7 -7 -13 -19 -13 -26 0 -20 18 -16 123
31 53 25 97 41 97 37 0 -3 -7 -17 -16 -29 -9 -13 -14 -25 -12 -28 3 -2 31 12
62 31 32 19 61 35 64 35 2 0 10 6 16 14 6 7 45 43 87 79 l75 65 -4 -56 -5 -56
26 17 c15 9 33 17 42 17 8 0 14 4 13 9 -2 5 49 58 112 119 l115 110 3 -56 3
-55 43 47 c87 94 136 217 136 340 0 66 1 68 18 53 23 -21 42 -22 42 -3 0 35
-67 185 -111 248 -25 34 -24 38 8 38 l27 0 -28 29 c-22 23 -26 33 -18 48 6 10
22 52 36 93 72 204 -10 357 -160 300 -27 -10 -27 -10 -21 27 14 81 -24 226
-67 262 -9 8 -16 22 -16 33 0 60 -78 287 -122 353 -69 104 -202 217 -337 285
-77 40 -219 88 -282 96 l-49 7 27 -48z m155 -59 c167 -62 272 -128 373 -230
106 -107 131 -157 179 -358 5 -21 3 -26 -8 -22 -8 3 -20 29 -27 57 -30 131
-107 248 -224 343 -73 59 -226 145 -293 164 l-34 9 7 -49 c4 -28 4 -50 1 -50
-3 0 -21 10 -39 23 -36 25 -164 70 -230 82 l-39 8 26 -49 c14 -27 22 -50 17
-52 -6 -2 -27 1 -48 7 -21 6 -78 11 -126 11 l-88 0 37 -45 c21 -27 33 -49 28
-54 -5 -5 -38 -18 -74 -30 -36 -12 -104 -40 -150 -64 -99 -49 -110 -65 -135
-197 -15 -77 -32 -110 -57 -110 -11 0 -2 51 22 140 25 91 34 112 61 137 29 26
165 94 237 117 28 10 52 22 52 27 0 5 -18 29 -41 54 l-40 44 36 7 c20 3 81 4
136 2 69 -4 96 -2 92 6 -3 6 -17 26 -30 44 -14 18 -23 36 -20 39 9 8 159 -14
213 -32 27 -9 69 -28 93 -42 l44 -26 -6 34 c-3 19 -9 44 -13 57 -8 27 -8 27
68 -2z m-650 -631 l43 -12 -96 -5 c-78 -3 -105 -9 -152 -31 -85 -42 -102 -76
-102 -207 0 -58 8 -154 19 -215 l19 -110 -21 -47 c-15 -35 -34 -56 -67 -77
-26 -16 -41 -32 -35 -36 6 -4 -5 -25 -29 -53 -40 -47 -111 -159 -111 -174 0
-4 7 -5 17 -1 13 5 15 2 9 -18 -16 -50 -18 -222 -2 -279 8 -30 13 -56 12 -58
-2 -1 -16 26 -32 60 -26 57 -29 73 -29 168 0 58 -4 108 -8 111 -11 8 70 161
104 199 l28 30 -26 0 c-23 0 -20 6 42 66 42 41 70 62 74 55 5 -7 11 -3 18 11
19 38 22 69 12 97 -6 14 -17 62 -25 106 -42 236 16 402 150 436 38 9 130 2
188 -16z m1179 -8 c34 -18 51 -36 74 -82 27 -53 30 -70 34 -170 2 -80 -2 -135
-14 -191 -10 -43 -20 -91 -22 -107 -6 -33 14 -87 31 -81 12 5 126 -91 126
-107 0 -5 -7 -9 -15 -9 -11 0 -5 -14 19 -47 49 -69 100 -175 88 -182 -7 -4 -7
-22 0 -55 13 -60 -2 -162 -32 -227 -11 -24 -18 -35 -14 -24 4 11 11 56 17 100
8 63 7 95 -5 153 -12 59 -12 72 -1 68 7 -3 13 -1 13 4 0 21 -63 122 -105 168
-31 35 -41 52 -33 60 7 7 2 15 -19 26 -77 39 -122 128 -99 194 22 62 39 205
34 280 -11 153 -78 215 -232 216 -44 1 -101 -2 -126 -6 -39 -6 -35 -3 25 17
96 33 196 34 256 2z m-936 -238 c12 -18 26 -9 15 10 -14 27 -13 31 8 24 27
-10 93 -55 88 -61 -3 -2 4 -21 15 -40 10 -20 19 -50 19 -66 0 -29 0 -29 -60
29 -73 69 -92 66 -27 -4 55 -59 67 -93 42 -121 -25 -28 -54 -18 -155 50 -47
32 -104 67 -127 79 -41 20 -105 27 -137 15 -30 -11 -16 -24 26 -24 l41 0 -21
-23 c-41 -44 -19 -106 50 -141 l33 -16 -45 5 -45 5 35 -16 c52 -25 187 -30
246 -10 34 11 51 13 58 5 7 -6 7 -10 1 -9 -45 9 -80 -33 -91 -109 l-7 -45 -23
30 c-19 23 -24 25 -24 11 0 -37 30 -75 77 -98 27 -12 56 -29 66 -37 9 -8 20
-12 25 -8 4 5 -17 29 -45 55 -29 26 -53 53 -53 60 0 17 59 101 70 101 6 0 10
-4 10 -10 0 -5 -4 -10 -10 -10 -15 0 -41 -57 -34 -74 8 -22 24 -20 24 3 0 18
26 48 35 39 7 -7 -7 -48 -16 -48 -5 0 -9 -4 -9 -8 0 -12 56 -42 78 -42 11 0
28 -7 37 -16 24 -24 30 -10 16 38 -8 26 -29 58 -51 80 l-39 36 37 -10 c20 -6
81 -8 137 -6 l100 4 -42 -41 c-28 -27 -44 -53 -48 -78 -7 -38 0 -61 13 -40 4
6 26 16 49 23 39 12 89 50 66 50 -13 0 -24 38 -13 45 10 6 27 -14 32 -40 5
-19 5 -19 13 -1 12 26 -6 68 -35 83 l-25 13 26 0 c20 0 33 -10 53 -40 36 -54
33 -73 -14 -104 -32 -21 -71 -66 -57 -66 2 0 31 14 64 30 66 33 86 52 102 93
12 32 -2 37 -21 7 -17 -27 -28 -25 -28 5 0 47 -31 106 -64 122 l-31 14 30 -6
c67 -15 201 -17 252 -5 61 15 71 31 16 24 -28 -3 -33 -2 -18 5 11 5 32 21 48
36 30 31 37 84 12 105 -20 17 -9 30 26 30 31 0 39 14 13 24 -57 22 -133 -7
-266 -101 -43 -30 -93 -57 -113 -60 -30 -5 -36 -2 -46 19 -13 31 4 69 58 129
53 59 20 47 -43 -15 -52 -53 -54 -54 -54 -27 0 15 9 44 20 66 25 49 25 53 -1
29 -28 -25 -58 -91 -59 -129 -1 -28 -2 -29 -15 -12 -7 10 -19 41 -25 69 l-13
50 38 37 c37 36 37 36 31 9 -8 -34 -2 -35 38 -4 17 13 50 33 74 45 42 21 43
21 33 2 -21 -38 -11 -43 27 -13 36 29 75 52 86 52 13 0 5 -34 -11 -45 -14 -10
-7 -12 38 -8 50 4 53 3 35 -11 -31 -25 -13 -28 37 -7 78 33 127 36 167 9 42
-29 90 -117 90 -168 0 -30 -10 -50 -50 -100 -36 -45 -50 -71 -50 -94 l1 -31
17 28 c20 33 29 34 54 5 60 -70 21 -152 -88 -184 -81 -23 -128 -48 -148 -79
l-17 -26 -20 23 c-19 21 -20 21 -14 3 3 -11 9 -42 12 -70 3 -27 11 -57 18 -65
14 -17 45 -80 40 -80 -2 0 -31 7 -65 16 -34 8 -64 14 -66 11 -3 -3 23 -18 58
-34 68 -32 122 -73 139 -105 9 -17 8 -19 -10 -13 -25 8 -26 2 -5 -30 9 -14 13
-33 9 -45 -8 -24 -34 -29 -97 -16 -42 8 -34 -10 17 -39 44 -26 44 -27 31 -54
-21 -39 -100 -109 -149 -132 -49 -22 -116 -24 -172 -4 -21 8 -41 12 -44 10 -2
-3 -12 2 -22 11 -9 8 -25 17 -34 18 -9 1 -21 9 -27 17 -6 9 -11 10 -14 3 -3
-6 -12 -20 -20 -30 -9 -10 -13 -14 -10 -7 10 19 -12 25 -23 6 -5 -10 -36 -33
-69 -50 -52 -28 -64 -31 -95 -22 -20 5 -51 27 -75 53 -47 51 -61 85 -40 100
93 70 87 80 -17 32 -43 -20 -88 -36 -101 -36 -33 0 -62 36 -69 84 -12 81 59
278 119 335 12 12 47 30 77 41 l54 20 -58 -3 c-48 -3 -57 -1 -53 12 3 9 7 32
11 51 l6 35 -19 -22 -19 -21 -16 28 c-17 28 -91 70 -124 70 -31 1 -100 37
-117 61 -21 30 -20 83 1 120 22 36 46 37 63 2 8 -17 14 -23 17 -15 9 25 -7 58
-58 122 -45 57 -51 68 -46 101 7 51 35 106 74 146 41 40 84 43 170 13 70 -24
74 -24 45 0 l-22 19 57 -5 c32 -2 52 -1 46 2 -7 3 -13 17 -13 30 l0 24 50 -31
c27 -17 52 -35 55 -40z m-661 -120 c15 -7 27 -23 31 -40 3 -16 8 -43 11 -60
l6 -32 -35 35 c-43 44 -81 55 -113 33 -17 -11 -24 -25 -24 -46 0 -28 1 -29 16
-15 13 14 94 24 94 12 0 -3 -13 -18 -30 -34 -23 -24 -30 -39 -29 -69 l1 -38
13 31 c8 18 26 42 42 53 l27 22 13 -23 c25 -46 16 -71 -41 -121 l-54 -46 -30
67 c-50 113 -54 201 -11 256 23 29 69 35 113 15z m1880 -10 c14 -11 29 -34 34
-52 12 -46 -3 -146 -32 -211 -28 -63 -23 -63 -99 -7 -49 36 -58 59 -31 86 26
25 56 14 82 -30 l24 -40 -6 45 c-3 33 -12 52 -35 72 -16 14 -27 29 -24 32 12
12 72 6 87 -9 19 -20 26 -19 26 3 0 34 -29 62 -66 62 -27 0 -43 -9 -76 -42
-23 -23 -39 -35 -36 -26 4 8 10 36 13 62 6 36 13 50 34 61 37 20 74 18 105 -6z
m-174 -516 c22 -47 28 -119 9 -107 -8 5 -9 -10 -4 -54 8 -71 -9 -95 -19 -27
-11 69 -26 53 -27 -27 -1 -78 -16 -153 -18 -93 -2 40 -21 71 -21 34 0 -14 -8
-48 -17 -75 l-18 -49 -5 60 -5 60 -16 -45 -16 -45 -7 60 c-10 77 -38 160 -76
226 -17 28 -29 53 -27 55 2 3 27 -16 56 -42 57 -51 62 -47 27 26 -21 43 -22
48 -6 40 10 -5 30 -24 44 -41 15 -17 29 -29 32 -27 2 3 -5 27 -16 53 -11 26
-19 50 -16 52 2 2 20 -10 40 -27 39 -34 45 -27 20 22 -16 32 -9 32 29 0 21
-18 21 -12 2 36 l-15 37 25 -30 c14 -16 34 -49 45 -72z m-1575 37 c-23 -44
-18 -56 12 -29 15 14 24 18 21 9 -3 -8 -9 -26 -13 -39 l-7 -24 34 27 c19 14
38 26 41 26 4 0 -2 -23 -14 -51 -11 -29 -18 -53 -16 -55 2 -2 19 12 37 31 45
46 53 44 30 -7 -31 -68 -24 -74 30 -24 27 25 52 46 54 46 3 0 -10 -28 -28 -62
-41 -76 -64 -143 -74 -223 l-8 -60 -14 45 -15 45 -5 -60 c-5 -56 -6 -58 -17
-33 -7 15 -15 50 -19 78 -8 63 -24 65 -25 3 l-1 -48 -14 65 c-7 36 -14 81 -14
100 -2 32 -3 31 -21 -25 l-19 -60 4 78 c3 70 -6 102 -17 60 -3 -10 -3 5 0 32
5 57 34 129 65 162 29 30 32 29 13 -7z"/>
<path d="M953 747 c-82 -23 -116 -85 -89 -163 l15 -45 -32 -29 c-18 -15 -29
-31 -26 -34 3 -4 37 7 75 23 149 63 314 109 471 131 84 12 274 9 306 -5 10 -4
17 -3 17 3 0 15 -154 75 -260 100 -132 33 -391 42 -477 19z m237 -18 c77 2
109 -13 87 -42 -18 -25 -89 -34 -106 -13 -12 14 -15 13 -32 -8 -23 -29 -84
-43 -106 -24 -13 10 -19 8 -37 -15 -26 -33 -30 -33 -48 -4 -28 42 -30 65 -9
86 17 17 25 19 51 10 24 -9 38 -8 63 5 18 8 41 13 52 9 11 -4 49 -5 85 -4z"/>
</g>
</svg>
